# xmcd
#
# Track frame offsets: 
#        150
#        12701
#        25412
#        37304
#        51029
#        65649
#        77294
#        89675
#        102886
#        116641
#        129311
#        141725
#        154575
#        168529
#        179436
#        192064
#        205922
#        217733
#        230285
#        244976
#        258640
#        271873
#        285287
#        299265
#        310454
#
# Disc length: 4315 seconds
#
# Revision: 0
# Processed by: cddbd v1.5.2PL0 Copyright (c) Steve Scherf et al.
# Submitted via: ExactAudioCopy v0.95b4
#
DISCID=7510d919
DTITLE=T-Bone Walker - The Alternate T-Bone
DYEAR=1947
DGENRE=Jazz-Blues
TTITLE0=No Worry Blues
TTITLE1=Don't Leave Me Baby
TTITLE2=Bobby Sox Blues
TTITLE3=Call It Stormy Monday
TTITLE4=She Had To Let Me Down
TTITLE5=Dream Girl Blues
TTITLE6=Midnight Blues
TTITLE7=Long Lost Lover Blues
TTITLE8=Triflin' Woman Blues
TTITLE9=Long Skirt Baby Blues
TTITLE10=Too Much Trouble Blues
TTITLE11=Hypin' Woman Blues
TTITLE12=First Love Blues
TTITLE13=Lonesome Woman Blues
TTITLE14=Inspiration Blues
TTITLE15=Description Blues
TTITLE16=T-Bone Shuffle
TTITLE17=The Time Seems So Long
TTITLE18=Wise Man Blues
TTITLE19=Misfortune Blues
TTITLE20=I Wish You Were Mine
TTITLE21=I'm Gonna Move You Out And Get Somebody Else
TTITLE22=She's The No Sleepin'est Woman
TTITLE23=Go Back To The One You Love
TTITLE24=You're My Best Poker Hand
EXTD=
EXTT0=
EXTT1=
EXTT2=
EXTT3=
EXTT4=
EXTT5=
EXTT6=
EXTT7=
EXTT8=
EXTT9=
EXTT10=
EXTT11=
EXTT12=
EXTT13=
EXTT14=
EXTT15=
EXTT16=
EXTT17=
EXTT18=
EXTT19=
EXTT20=
EXTT21=
EXTT22=
EXTT23=
EXTT24=
PLAYORDER=
